<?xml version="1.0" standalone="no"?>
<!DOCTYPE svg PUBLIC "-//W3C//DTD SVG 20010904//EN"
 "http://www.w3.org/TR/2001/REC-SVG-20010904/DTD/svg10.dtd">
<svg version="1.0" xmlns="http://www.w3.org/2000/svg"
 width="515.000000pt" height="283.000000pt" viewBox="0 0 515.000000 283.000000"
 preserveAspectRatio="xMidYMid meet">

<g transform="translate(0.000000,283.000000) scale(0.100000,-0.100000)"
fill="currentColor" stroke="none">
<path d="M30 1690 l0 -1130 215 0 215 0 2 736 3 737 479 -727 479 -726 1079 0
1078 0 0 364 0 365 98 67 c53 37 118 82 143 101 l47 33 297 -452 c164 -249
303 -459 309 -466 9 -9 83 -12 328 -10 l316 3 -416 581 c-230 320 -432 602
-449 627 l-33 45 425 478 c234 262 425 481 425 485 0 5 -139 9 -310 9 l-309 0
-433 -453 -433 -454 -5 286 -5 285 -252 -264 -253 -264 0 -458 0 -458 -595 0
-595 0 0 225 0 225 408 2 407 3 3 188 2 187 -410 0 -410 0 0 223 0 224 173 6
c94 4 387 7 649 7 l476 0 216 236 c119 130 216 240 216 245 0 5 -436 8 -1092
7 l-1093 -3 -5 -732 -5 -733 -485 740 -484 740 -208 0 -208 0 0 -1130z"/>
<path d="M293 358 c-81 -26 -139 -136 -114 -218 18 -59 71 -115 126 -130 55
-16 135 -8 178 18 31 17 32 21 35 90 l3 72 -40 0 -40 0 -3 -52 c-3 -49 -5 -52
-36 -60 -98 -25 -173 73 -126 163 15 30 65 59 102 59 10 0 35 -9 57 -20 l39
-20 26 26 c25 25 25 25 5 41 -54 41 -140 54 -212 31z"/>
<path d="M1716 361 c-12 -19 -156 -345 -156 -353 0 -4 18 -8 41 -8 38 0 42 3
57 40 l17 40 83 0 82 0 16 -40 c16 -38 18 -40 61 -40 32 0 44 4 40 13 -2 7
-39 90 -82 185 l-78 172 -38 0 c-21 0 -40 -4 -43 -9z m73 -158 l21 -53 -50 0
c-28 0 -50 2 -50 4 0 19 45 115 51 109 4 -4 17 -32 28 -60z"/>
<path d="M3010 185 l0 -185 40 0 39 0 3 103 3 102 48 -83 c33 -56 55 -82 67
-82 13 0 35 26 67 80 l48 81 5 -98 5 -98 38 0 c20 0 37 3 37 8 0 4 0 86 0 182
l0 175 -28 0 c-34 0 -45 -11 -102 -110 -73 -126 -59 -126 -135 -1 -64 107 -68
111 -101 111 l-34 0 0 -185z"/>
<path d="M4514 357 c-2 -7 -3 -89 -2 -182 l3 -170 138 -3 137 -3 0 41 0 40
-95 0 -95 0 0 35 0 35 80 0 80 0 0 35 0 35 -80 0 -80 0 0 35 0 35 90 0 90 0 0
40 0 40 -130 0 c-97 0 -132 -3 -136 -13z"/>
</g>
</svg>
